<svg width="24" height="24" viewBox="0 0 24 24" fill="none" xmlns="http://www.w3.org/2000/svg">
  <path d="M12 2C8.14 2 5 5.14 5 9C5 13.17 9.42 18.92 11.24 21.11C11.64 21.59 12.37 21.59 12.77 21.11C14.58 18.92 19 13.17 19 9C19 5.14 15.86 2 12 2ZM12 4C14.76 4 17 6.24 17 9C17 11.88 14.12 16.19 12 18.88C9.92 16.21 7 11.85 7 9C7 6.24 9.24 4 12 4Z" fill="currentColor"/>
  <path d="M12 7C10.34 7 9 8.34 9 10C9 11.66 10.34 13 12 13C13.66 13 15 11.66 15 10C15 8.34 13.66 7 12 7ZM12 11C11.45 11 11 10.55 11 10C11 9.45 11.45 9 12 9C12.55 9 13 9.45 13 10C13 10.55 12.55 11 12 11Z" fill="currentColor"/>
</svg> 