<svg width="24" height="24" viewBox="0 0 24 24" fill="none" xmlns="http://www.w3.org/2000/svg">
  <path d="M12 7C9.24 7 7 9.24 7 12C7 14.76 9.24 17 12 17C14.76 17 17 14.76 17 12C17 9.24 14.76 7 12 7ZM12 15C10.35 15 9 13.65 9 12C9 10.35 10.35 9 12 9C13.65 9 15 10.35 15 12C15 13.65 13.65 15 12 15Z" fill="currentColor"/>
  <path d="M12 5V3" stroke="currentColor" stroke-width="2" stroke-linecap="round"/>
  <path d="M12 21V19" stroke="currentColor" stroke-width="2" stroke-linecap="round"/>
  <path d="M16.95 7.05L18.36 5.64" stroke="currentColor" stroke-width="2" stroke-linecap="round"/>
  <path d="M5.64 18.36L7.05 16.95" stroke="currentColor" stroke-width="2" stroke-linecap="round"/>
  <path d="M19 12L21 12" stroke="currentColor" stroke-width="2" stroke-linecap="round"/>
  <path d="M3 12L5 12" stroke="currentColor" stroke-width="2" stroke-linecap="round"/>
  <path d="M16.95 16.95L18.36 18.36" stroke="currentColor" stroke-width="2" stroke-linecap="round"/>
  <path d="M5.64 5.64L7.05 7.05" stroke="currentColor" stroke-width="2" stroke-linecap="round"/>
</svg> 