<svg width="24" height="24" viewBox="0 0 24 24" fill="none" xmlns="http://www.w3.org/2000/svg">
  <path d="M13.127 14.56L14.557 13.13L16.447 15.02L15.017 16.45L13.127 14.56Z" fill="currentColor"/>
  <path d="M17.4172 18.8087L18.8372 17.3887L20.7272 19.2787L19.3072 20.6987L17.4172 18.8087Z" fill="currentColor"/>
  <path d="M8.40723 19.7986L9.83723 18.3686L11.7272 20.2586L10.2972 21.6886L8.40723 19.7986Z" fill="currentColor"/>
  <path d="M6.49731 14.5586L7.92731 13.1286L9.81731 15.0186L8.38731 16.4486L6.49731 14.5586Z" fill="currentColor"/>
  <path d="M16 12V4C16 2.9 15.1 2 14 2H10C8.9 2 8 2.9 8 4V12C5.79 12.4 4 14.42 4 16.75C4 19.5 6.2 21.7 8.95 21.95C9.9 22.05 10.85 21.85 11.7 21.45C12.55 21.05 13.3 20.45 13.9 19.65C14.5 18.85 14.85 17.95 14.95 17C15.05 16.05 14.9 15.1 14.55 14.2C17.05 13.85 18.95 11.8 19 9.25C19 7.15 17.6 5.35 16 4.62V12Z" fill="currentColor"/>
</svg> 