<?xml version="1.0" encoding="UTF-8"?>
<svg width="24px" height="24px" viewBox="0 0 24 24" version="1.1" xmlns="http://www.w3.org/2000/svg">
    <path d="M18.92,6.01C18.72,5.42 18.16,5 17.5,5h-11c-0.66,0 -1.21,0.42 -1.42,1.01L3,12v8c0,0.55 0.45,1 1,1h1c0.55,0 1,-0.45 1,-1v-1h12v1c0,0.55 0.45,1 1,1h1c0.55,0 1,-0.45 1,-1v-8l-2.08,-5.99zM6.5,16c-0.83,0 -1.5,-0.67 -1.5,-1.5S5.67,13 6.5,13s1.5,0.67 1.5,1.5S7.33,16 6.5,16zM17.5,16c-0.83,0 -1.5,-0.67 -1.5,-1.5s0.67,-1.5 1.5,-1.5 1.5,0.67 1.5,1.5 -0.67,1.5 -1.5,1.5zM5,11l1.5,-4.5h11L19,11L5,11z" fill="#F39C12" fill-rule="nonzero"></path>
    <circle cx="15" cy="7.5" r="0.5" fill="#F39C12"></circle>
    <path d="M15,7.5 C15,7.22386 14.7761,7 14.5,7 L9.5,7 C9.22386,7 9,7.22386 9,7.5 L9,8.5 C9,8.77614 9.22386,9 9.5,9 L14.5,9 C14.7761,9 15,8.77614 15,8.5 L15,7.5 Z" fill="#F39C12" fill-rule="nonzero"></path>
</svg> 