<?xml version="1.0" encoding="UTF-8"?>
<svg width="24px" height="24px" viewBox="0 0 24 24" version="1.1" xmlns="http://www.w3.org/2000/svg">
    <path d="M19.416,5.849 L18,3.5 C18,3.5 16,3.1 15.082,4.018 C14.164,4.936 13,7.5 13,7.5 L12,7.5 L11,7.5 C11,7.5 9.836,4.936 8.918,4.018 C8,3.1 6,3.5 6,3.5 L4.584,5.849 C4.236,6.503 4.063,7.241 4.084,7.987 L4.17,11.35 C4.2,12.412 5.068,13.265 6.13,13.275 L7.756,13.29 L7.756,20.5 L16.244,20.5 L16.244,13.29 L17.87,13.275 C18.932,13.265 19.8,12.412 19.83,11.35 L19.916,7.987 C19.937,7.241 19.764,6.503 19.416,5.849 Z" fill="#E63946" fill-rule="nonzero"></path>
</svg> 