<?xml version="1.0" encoding="UTF-8"?>
<svg width="24px" height="24px" viewBox="0 0 24 24" version="1.1" xmlns="http://www.w3.org/2000/svg">
    <path d="M11.9984,7 C13.7484,7 16.4984,8 16.4984,11.5 C16.4984,13.5 15.4984,15.2031 13.9984,15.9531 C16.4984,16.5781 16.9984,19 16.9984,19 L15.4984,19.75 C15.4984,19.75 14.9984,17 11.9984,17 C8.99844,17 8.49844,19.75 8.49844,19.75 L6.99844,19 C6.99844,19 7.49844,16.5781 9.99844,15.9531 C8.49844,15.2031 7.49844,13.5 7.49844,11.5 C7.49844,8 10.2484,7 11.9984,7 Z M9.74844,11.5 C9.74844,12.8969 10.6016,14 11.9984,14 C13.3953,14 14.2984,12.8969 14.2484,11.5 C14.2484,10.1031 13.3453,9 11.9984,9 C10.6516,9 9.74844,10.1031 9.74844,11.5 Z" fill="#9B59B6" fill-rule="nonzero"></path>
</svg> 