<?xml version="1.0" encoding="UTF-8"?>
<svg width="24px" height="24px" viewBox="0 0 24 24" version="1.1" xmlns="http://www.w3.org/2000/svg">
    <path d="M12,2.5 C12,2.5 5.5,9.75 5.5,14.5 C5.5,17.529 8.471,20 12,20 C15.529,20 18.5,17.529 18.5,14.5 C18.5,9.75 12,2.5 12,2.5 Z M7.5,14.5 C7.5,13.34 8.62,11.13 10,9.15 C10.38,10.38 11.38,11.9 13,11.9 C14.331,11.9 15.41,10.82 15.41,9.49 C15.41,9.16 15.34,8.85 15.23,8.57 C15.75,9.22 17.5,11.5 17.5,14.5 C17.5,16.986 15.086,19 12,19 C8.914,19 7.5,16.986 7.5,14.5 Z" fill="#FFFFFF" fill-rule="nonzero"></path>
</svg> 