<?xml version="1.0" encoding="UTF-8"?>
<svg width="24px" height="24px" viewBox="0 0 24 24" version="1.1" xmlns="http://www.w3.org/2000/svg">
    <path d="M17.5,11.5 C15.573,9.573 13.093,8.5 10.5,8.5 C7.907,8.5 5.427,9.573 3.5,11.5 L3.5,13.5 C3.5,13.776 3.724,14 4,14 L4.5,14 L4.5,15 C4.5,15.276 4.724,15.5 5,15.5 L5.5,15.5 L5.5,16.5 C5.5,16.776 5.724,17 6,17 L7,17 L7,15.5 C7,13.57 9.57,12 12.5,12 C15.43,12 18,13.57 18,15.5 L18,17 L19,17 C19.276,17 19.5,16.776 19.5,16.5 L19.5,15.5 L20,15.5 C20.276,15.5 20.5,15.276 20.5,15 L20.5,14 L21,14 C21.276,14 21.5,13.776 21.5,13.5 L21.5,11.5 C19.573,9.573 17.093,8.5 14.5,8.5 L14.5,5 L12.5,3 L10.5,5 L10.5,8.5 L17.5,11.5 Z M12.5,14 C11.672,14 11,14.448 11,15 C11,15.552 11.672,16 12.5,16 C13.328,16 14,15.552 14,15 C14,14.448 13.328,14 12.5,14 Z" fill="#4CAF50" fill-rule="nonzero"></path>
</svg> 