<?xml version="1.0" encoding="UTF-8"?>
<svg width="24px" height="24px" viewBox="0 0 24 24" version="1.1" xmlns="http://www.w3.org/2000/svg">
    <path d="M13.127,14.56 L14.937,14.56 C15.9174,14.56 16.7137,13.7637 16.7137,12.7833 C16.7137,11.803 15.9174,11.0067 14.937,11.0067 L13.87,11.0067 C13.87,9.047 12.283,7.46 10.3233,7.46 C8.36367,7.46 6.77667,9.047 6.77667,11.0067 L5.71,11.0067 C4.72963,11.0067 3.93334,11.803 3.93334,12.7833 C3.93334,13.7637 4.72963,14.56 5.71,14.56 L7.52,14.56 L6.146,17.3267 L8.02667,17.3267 L9.40067,14.56 L12.247,14.56 L10.873,17.3267 L12.7537,17.3267 L14.1277,14.56 L13.127,14.56 Z" fill="#3498DB" fill-rule="nonzero"></path>
</svg> 