<?xml version="1.0" encoding="UTF-8"?>
<svg width="24px" height="24px" viewBox="0 0 24 24" version="1.1" xmlns="http://www.w3.org/2000/svg">
    <path d="M15,13V5c0,-1.66 -1.34,-3 -3,-3S9,3.34 9,5v8c-1.21,0.91 -2,2.37 -2,4 0,2.76 2.24,5 5,5s5,-2.24 5,-5c0,-1.63 -0.79,-3.09 -2,-4zM12,19c-1.66,0 -3,-1.34 -3,-3 0,-1 0.49,-1.89 1.25,-2.45L11,13V5c0,-0.55 0.45,-1 1,-1s1,0.45 1,1v8l0.75,0.55C14.51,14.11 15,15 15,16 15,17.66 13.66,19 12,19z" fill="#FFFFFF" fill-rule="nonzero"></path>
    <path d="M11.5,14.5v-6c0,-0.28 0.22,-0.5 0.5,-0.5s0.5,0.22 0.5,0.5v6c0.2766,0.1568 0.5,0.4477 0.5,0.75 0,0.5523 -0.4477,1 -1,1 -0.5523,0 -1,-0.4477 -1,-1 0,-0.3023 0.2234,-0.5932 0.5,-0.75z" fill="#E74C3C" fill-rule="nonzero"></path>
</svg> 