<?xml version="1.0" encoding="UTF-8"?>
<svg width="24px" height="24px" viewBox="0 0 24 24" version="1.1" xmlns="http://www.w3.org/2000/svg">
    <path d="M3,18 L9,18 C10.104,18 11,17.104 11,16 C11,14.896 10.104,14 9,14 L6,14 C6,14 6,14 6,14 C6,14 6,14 6,14 L3,14 L3,18 Z M12,10 L15,10 C15,10 15,10 15,10 C15,10 15,10 15,10 C16.654,10 18,8.654 18,7 C18,5.346 16.654,4 15,4 L12,4 L12,8 C12,8 12,8 12,8 C12,8 12,8 12,8 L9,8 C7.896,8 7,8.896 7,10 C7,11.104 7.896,12 9,12 L12,12 L12,10 Z M14,20 L17,20 C19.209,20 21,18.209 21,16 C21,13.791 19.209,12 17,12 L14,12 L14,16 C14,16 14,16 14,16 C14,16 14,16 14,16 L9,16 C7.343,16 6,17.343 6,19 C6,20.657 7.343,22 9,22 L14,22 L14,20 Z" fill="#FFFFFF" fill-rule="nonzero"></path>
</svg> 